<?xml version="1.0" encoding="utf-8"?>
<svg version="1.1" id="Layer_1" x="0px" y="0px" width="100%" viewBox="0 0 512 512" enable-background="new 0 0 512 512" xmlns="http://www.w3.org/2000/svg">
  <path fill="#CDEBAA" opacity="1.000000" stroke="none" d=" M513.000000,479.531342 C512.349670,479.034668 511.295959,478.131317 511.135956,477.090607 C510.835754,475.137482 511.053894,473.104919 511.053864,471.105377 C511.051849,327.304779 511.045197,183.504150 511.095367,39.703560 C511.096008,37.859573 511.820007,36.015835 512.603149,34.085991 C513.000000,182.354233 513.000000,330.708466 513.000000,479.531342 z"/>
  <path fill="#D7F0BB" opacity="1.000000" stroke="none" d=" M33.468655,513.000000 C34.380196,512.361023 35.706108,511.421417 37.154465,511.159912 C38.927868,510.839691 40.803814,511.089172 42.635414,511.089172 C185.999985,511.089142 329.364563,511.084229 472.729095,511.135498 C474.760681,511.136200 476.791992,511.841736 478.911713,512.609192 C330.645782,513.000000 182.291550,513.000000 33.468655,513.000000 z"/>
  <path fill="#E0F3CA" opacity="1.000000" stroke="none" d=" M35.000000,1.000000 C182.024078,1.000000 329.048157,1.000000 476.396393,1.369882 C474.528503,2.121336 472.336670,2.835519 470.144409,2.836704 C368.330994,2.891786 266.517578,2.884707 164.704132,2.884930 C123.712151,2.885020 82.720085,2.915100 41.728394,2.805262 C39.484001,2.799248 37.242725,1.628557 35.000000,1.000000 z"/>
  <path fill="#8DD471" opacity="1.000000" stroke="none" d=" M16.822569,10.798290 C18.654135,10.103830 20.438177,9.217851 22.325836,8.749444 C29.012213,7.090274 35.731438,4.215904 42.442734,4.203270 C183.163269,3.938372 323.884460,3.952725 464.605286,4.131649 C472.794800,4.142061 480.981995,6.010626 489.881592,7.166760 C496.056396,12.573323 501.519867,17.827581 506.983368,23.081837 C513.011597,47.384228 509.754364,72.107468 509.827789,96.608154 C510.204742,222.398056 510.003845,348.189697 510.000244,473.980743 C509.999664,493.650696 493.816772,509.989258 474.247162,509.991150 C329.129272,510.005157 184.011414,510.003235 38.893536,509.993378 C19.858700,509.992096 3.566839,494.135651 3.010154,475.132568 C2.956510,473.301392 2.998573,471.467346 2.998571,469.634644 C2.998358,328.515411 3.039100,187.396164 2.907721,46.277065 C2.898858,36.756874 4.263093,27.822668 8.960978,18.787411 C11.000770,16.063366 12.947113,14.016911 15.204457,11.952278 C15.991480,11.583005 16.467503,11.231908 16.899548,10.880314 C16.855574,10.879816 16.822569,10.798290 16.822569,10.798290 M153.702637,145.947159 C158.126266,150.112259 162.398743,154.453598 167.005554,158.405136 C176.082458,166.190964 185.823090,173.014206 198.163483,178.540634 C199.471939,171.003815 201.550781,164.114365 201.712143,157.180283 C202.276459,132.930878 192.305115,112.736214 176.449173,94.988625 C164.413422,81.516998 148.998444,72.439598 134.453903,62.219200 C132.749802,61.021725 130.959045,59.947567 128.470093,58.339081 C127.894730,60.928829 127.189011,62.760891 127.120255,64.616554 C126.094955,92.289780 133.325302,117.514397 149.549637,140.092453 C150.247879,141.064133 149.875641,142.805054 149.453674,143.776321 C146.986038,141.556320 144.667160,139.138901 142.026123,137.149048 C127.152367,125.942642 110.263763,119.249504 92.243134,115.078156 C84.587257,113.306000 76.997276,111.249176 68.726860,109.157181 C69.045914,111.298645 69.011879,112.655617 69.461411,113.827011 C72.135796,120.795799 74.387573,127.993721 77.759010,134.616989 C96.908401,172.236267 128.877670,191.507416 169.596161,197.987152 C173.118912,198.547745 175.479706,197.978333 174.906174,193.458069 C173.356506,181.244324 169.971085,169.705627 162.856567,159.500595 C159.667694,154.926544 156.285904,150.486984 153.702637,145.947159 M156.152573,260.635376 C155.804871,276.808167 158.659256,292.127319 165.344070,307.131165 C173.875961,326.280762 187.171234,340.746429 204.139267,352.369415 C214.221909,359.275970 225.489609,363.407013 237.293732,365.930420 C257.957977,370.347900 278.350494,371.583557 296.412720,359.249756 C299.081421,359.249756 301.643188,359.969391 303.506989,359.133209 C315.777527,353.628143 326.861847,346.159668 335.829926,336.145111 C363.050385,305.748260 370.695129,270.752991 358.707733,231.793503 C356.496857,224.607941 354.893219,216.360809 346.581421,212.600830 C345.694458,212.199600 345.470367,210.163406 345.095093,208.841324 C344.562592,206.965439 344.686768,204.690674 343.647156,203.203949 C332.804688,187.698868 317.961639,177.072220 300.889832,169.552444 C280.473541,160.559494 259.292908,158.980194 237.445114,163.658249 C192.321198,173.320190 158.004379,213.685410 156.152573,260.635376 M193.887680,102.560585 C203.206970,124.531487 218.274261,141.762329 237.437332,156.194321 C238.458115,154.537567 239.243088,153.472610 239.808167,152.301559 C240.891357,150.056885 242.040802,147.816071 242.830368,145.462158 C251.295532,120.225456 246.723495,96.701622 233.742279,74.109222 C223.599319,56.456512 208.561844,43.230644 194.278900,29.291540 C193.189774,28.228638 191.713257,27.562679 190.288956,26.628334 C183.579971,45.296501 182.622711,75.132927 193.887680,102.560585 M381.068390,382.446320 C394.819122,395.588287 410.827179,405.119812 429.247345,409.540009 C441.276154,412.426544 453.819977,413.184326 466.143921,414.813873 C470.251129,415.356964 471.688690,413.380096 470.561218,409.482208 C469.730408,406.610046 468.951996,403.711914 467.917725,400.911194 C458.931732,376.577301 440.727722,361.872131 417.460022,352.226379 C401.512207,345.615082 384.615417,344.165344 367.790771,342.161011 C363.337158,341.630463 358.852509,341.360657 353.490356,340.893433 C359.540771,357.619659 369.307343,370.268616 381.068390,382.446320 M300.219025,115.628395 C310.995331,82.844307 301.700928,52.034458 291.723267,21.082357 C290.638458,21.470472 290.294434,21.524614 290.034912,21.702232 C289.625977,21.982157 289.248413,22.320280 288.901306,22.676401 C268.072388,44.045673 256.648712,69.647758 255.286362,99.430542 C254.454376,117.619171 258.533905,135.075729 265.054810,152.030685 C266.640961,156.154907 268.156799,156.704361 271.792114,154.148788 C285.352783,144.615738 294.401764,131.821732 300.219025,115.628395 M304.905853,131.316895 C302.756653,144.665665 305.265137,157.642349 307.493408,171.186310 C316.773315,168.521515 324.319824,164.122894 331.022705,158.346313 C351.763489,140.471756 360.626831,116.890739 361.862183,90.365105 C362.548981,75.617996 361.198486,60.774685 360.698669,45.977009 C360.669495,45.112072 360.034882,44.267574 359.403534,42.739632 C327.515930,63.897018 308.774506,92.477722 304.905853,131.316895 M56.784340,308.223206 C45.599697,314.427032 35.216194,321.694977 25.225626,331.362061 C26.528700,332.104279 27.310051,332.432098 27.955647,332.934387 C40.922066,343.022736 55.888309,347.485321 72.040199,347.825226 C88.111626,348.163422 103.716362,344.685425 117.627121,336.872040 C132.219040,328.676117 145.842651,318.753601 159.848648,309.523773 C160.698303,308.963837 161.188614,307.858612 162.293625,306.427582 C126.656921,290.946869 91.963097,290.226593 56.784340,308.223206 M339.838928,433.622925 C349.354004,451.118530 362.127655,465.681274 378.838837,477.471405 C386.204254,466.046204 388.830414,453.627258 388.603699,441.022491 C388.217590,419.554718 380.507355,400.142334 366.880463,383.751892 C356.709106,371.517792 344.877533,360.662964 333.749146,349.229095 C333.245758,348.711914 332.385681,348.541931 331.666992,348.198395 C323.159302,370.729645 325.142090,407.232452 339.838928,433.622925 M62.579262,388.088074 C58.823608,394.255249 55.067955,400.422455 50.931396,407.215118 C54.659321,408.370392 57.109100,409.403687 59.662731,409.878540 C85.542152,414.690857 108.239929,407.556427 128.754593,391.679138 C143.237137,380.470428 153.461334,365.760071 163.499390,350.835541 C166.125381,346.931213 168.714279,343.001953 171.498596,338.815979 C138.747864,332.624664 90.227135,347.183044 62.579262,388.088074 M425.442657,113.157669 C407.656555,113.547028 391.636322,119.098999 376.860016,128.982361 C361.766602,139.077820 350.381195,152.581024 340.011932,167.154724 C336.321838,172.341110 332.535217,177.458862 328.173920,183.459198 C357.642151,187.248276 383.942932,182.034637 407.919739,166.710953 C426.583069,154.783142 440.666046,138.545074 451.793823,117.304359 C442.513519,115.797050 434.427368,114.483696 425.442657,113.157669 M350.498291,207.915619 C349.507782,208.458511 348.517273,209.001419 347.383118,209.623047 C380.197479,235.421860 459.651001,224.228851 484.425873,190.793015 C482.488892,189.152069 480.659210,187.247513 478.507355,185.833145 C452.881012,168.989456 425.950287,169.793243 398.259705,179.857040 C380.811859,186.198227 366.526764,197.832474 350.498291,207.915619 M282.483582,471.012360 C286.958130,480.359039 291.432678,489.705719 296.487579,500.264709 C312.553101,477.539307 320.625153,453.742859 319.602203,427.571259 C318.665070,403.595490 310.803314,381.561584 296.676483,361.389526 C285.047852,370.913818 277.844757,382.507080 274.110565,396.093781 C267.040009,421.819794 271.033630,446.499084 282.483582,471.012360 M449.954895,277.522339 C470.152435,270.915619 486.438812,257.701538 505.018372,245.861847 C478.453003,232.376114 451.985229,228.013412 424.153961,234.309830 C402.380127,239.235855 383.585175,249.959732 366.678131,264.917480 C375.102997,272.273712 383.809143,277.272156 393.745514,280.061951 C412.479462,285.321777 430.945435,283.939087 449.954895,277.522339 M211.851257,396.478241 C210.223450,404.423950 207.768753,412.302185 207.113983,420.327301 C204.562988,451.592896 218.972229,477.896912 232.432037,504.518616 C262.129913,480.091095 262.354706,396.270508 232.794800,367.169983 C222.949829,374.558472 216.746124,384.564270 211.851257,396.478241 M177.171265,453.665253 C179.610001,450.096619 182.181229,446.610657 184.466370,442.946228 C201.732803,415.257935 204.259460,385.283386 198.196609,353.973694 C197.482010,350.283234 196.124588,349.263153 192.403015,351.037476 C165.312637,363.953430 152.451828,386.745636 146.951797,415.059509 C143.778946,431.393188 146.125275,447.554382 147.230270,463.776520 C147.570328,468.768768 148.573776,473.715851 149.353455,479.251434 C160.819229,472.496185 169.170441,463.780518 177.171265,453.665253 M488.067719,329.696198 C491.302948,328.652679 494.538177,327.609192 498.771973,326.243622 C479.580780,306.610931 457.387329,294.907654 431.289490,291.207397 C407.248901,287.798798 384.202484,291.904907 360.585419,302.687653 C367.219238,309.664520 372.381195,316.516449 378.884094,321.679352 C403.370911,341.120392 431.646606,342.194977 460.805603,336.828369 C469.752014,335.181854 478.454468,332.209839 488.067719,329.696198 M59.724907,223.839951 C91.750145,238.395325 123.758377,236.448334 156.405914,224.143921 C155.454788,222.270081 154.912811,220.901382 154.124374,219.693588 C139.332748,197.034805 117.442123,186.684402 91.354889,184.175339 C74.451042,182.549530 57.860970,185.016663 41.549778,189.636612 C35.072964,191.471085 28.475071,192.878113 20.901505,194.732071 C31.732494,208.136017 44.718719,216.696350 59.724907,223.839951 M101.471642,240.952927 C66.415794,238.332947 36.899220,250.843491 10.527758,273.649719 C11.931533,275.120544 12.707152,276.203888 13.725899,276.959381 C25.777948,285.896881 39.214691,291.108337 54.263489,292.111694 C73.580635,293.399628 91.785690,289.053070 108.581421,279.960968 C121.267899,273.093384 133.142624,264.723541 145.339706,256.961182 C146.059250,256.503235 146.431183,255.499161 147.246063,254.354141 C133.021652,246.448318 118.070747,242.527145 101.471642,240.952927 z"/>
  <path fill="#B83741" opacity="1.000000" stroke="none" d=" M156.163300,260.157654 C158.004379,213.685410 192.321198,173.320190 237.445114,163.658249 C259.292908,158.980194 280.473541,160.559494 300.889832,169.552444 C317.961639,177.072220 332.804688,187.698868 343.647156,203.203949 C344.686768,204.690674 344.562592,206.965439 345.095093,208.841324 C345.470367,210.163406 345.694458,212.199600 346.581421,212.600830 C354.893219,216.360809 356.496857,224.607941 358.707733,231.793503 C370.695129,270.752991 363.050385,305.748260 335.829926,336.145111 C326.861847,346.159668 315.777527,353.628143 303.506989,359.133209 C301.643188,359.969391 299.081421,359.249756 296.412720,359.249756 C278.350494,371.583557 257.957977,370.347900 237.293732,365.930420 C225.489609,363.407013 214.221909,359.275970 204.139267,352.369415 C187.171234,340.746429 173.875961,326.280762 165.344070,307.131165 C158.659256,292.127319 155.804871,276.808167 156.163300,260.157654 z"/>
  <path fill="#FDE939" opacity="1.000000" stroke="none" d=" M150.002075,144.187622 C149.875641,142.805054 150.247879,141.064133 149.549637,140.092453 C133.325302,117.514397 126.094955,92.289780 127.120255,64.616554 C127.189011,62.760891 127.894730,60.928829 128.470093,58.339081 C130.959045,59.947567 132.749802,61.021725 134.453903,62.219200 C148.998444,72.439598 164.413422,81.516998 176.449173,94.988625 C192.305115,112.736214 202.276459,132.930878 201.712143,157.180283 C201.550781,164.114365 199.471939,171.003815 198.163483,178.540634 C185.823090,173.014206 176.082458,166.190964 167.005554,158.405136 C162.398743,154.453598 158.126266,150.112259 153.156693,145.806152 C151.741196,145.172638 150.871628,144.680130 150.002075,144.187622 z"/>
  <path fill="#FDEA39" opacity="1.000000" stroke="none" d=" M193.733093,102.210419 C182.622711,75.132927 183.579971,45.296501 190.288956,26.628334 C191.713257,27.562679 193.189774,28.228638 194.278900,29.291540 C208.561844,43.230644 223.599319,56.456512 233.742279,74.109222 C246.723495,96.701622 251.295532,120.225456 242.830368,145.462158 C242.040802,147.816071 240.891357,150.056885 239.808167,152.301559 C239.243088,153.472610 238.458115,154.537567 237.437332,156.194321 C218.274261,141.762329 203.206970,124.531487 193.733093,102.210419 z"/>
  <path fill="#FDEA39" opacity="1.000000" stroke="none" d=" M380.820282,382.189697 C369.307343,370.268616 359.540771,357.619659 353.490356,340.893433 C358.852509,341.360657 363.337158,341.630463 367.790771,342.161011 C384.615417,344.165344 401.512207,345.615082 417.460022,352.226379 C440.727722,361.872131 458.931732,376.577301 467.917725,400.911194 C468.951996,403.711914 469.730408,406.610046 470.561218,409.482208 C471.688690,413.380096 470.251129,415.356964 466.143921,414.813873 C453.819977,413.184326 441.276154,412.426544 429.247345,409.540009 C410.827179,405.119812 394.819122,395.588287 380.820282,382.189697 z"/>
  <path fill="#FDEA39" opacity="1.000000" stroke="none" d=" M300.090057,116.001518 C294.401764,131.821732 285.352783,144.615738 271.792114,154.148788 C268.156799,156.704361 266.640961,156.154907 265.054810,152.030685 C258.533905,135.075729 254.454376,117.619171 255.286362,99.430542 C256.648712,69.647758 268.072388,44.045673 288.901306,22.676401 C289.248413,22.320280 289.625977,21.982157 290.034912,21.702232 C290.294434,21.524614 290.638458,21.470472 291.723267,21.082357 C301.700928,52.034458 310.995331,82.844307 300.090057,116.001518 z"/>
  <path fill="#FDEA39" opacity="1.000000" stroke="none" d=" M304.946838,130.869171 C308.774506,92.477722 327.515930,63.897018 359.403534,42.739632 C360.034882,44.267574 360.669495,45.112072 360.698669,45.977009 C361.198486,60.774685 362.548981,75.617996 361.862183,90.365105 C360.626831,116.890739 351.763489,140.471756 331.022705,158.346313 C324.319824,164.122894 316.773315,168.521515 307.493408,171.186310 C305.265137,157.642349 302.756653,144.665665 304.946838,130.869171 z"/>
  <path fill="#FDEA39" opacity="1.000000" stroke="none" d=" M57.133690,308.095825 C91.963097,290.226593 126.656921,290.946869 162.293625,306.427582 C161.188614,307.858612 160.698303,308.963837 159.848648,309.523773 C145.842651,318.753601 132.219040,328.676117 117.627121,336.872040 C103.716362,344.685425 88.111626,348.163422 72.040199,347.825226 C55.888309,347.485321 40.922066,343.022736 27.955647,332.934387 C27.310051,332.432098 26.528700,332.104279 25.225626,331.362061 C35.216194,321.694977 45.599697,314.427032 57.133690,308.095825 z"/>
  <path fill="#FDEA39" opacity="1.000000" stroke="none" d=" M339.663879,433.298218 C325.142090,407.232452 323.159302,370.729645 331.666992,348.198395 C332.385681,348.541931 333.245758,348.711914 333.749146,349.229095 C344.877533,360.662964 356.709106,371.517792 366.880463,383.751892 C380.507355,400.142334 388.217590,419.554718 388.603699,441.022491 C388.830414,453.627258 386.204254,466.046204 378.838837,477.471405 C362.127655,465.681274 349.354004,451.118530 339.663879,433.298218 z"/>
  <path fill="#FDEA39" opacity="1.000000" stroke="none" d=" M62.802666,387.806335 C90.227135,347.183044 138.747864,332.624664 171.498596,338.815979 C168.714279,343.001953 166.125381,346.931213 163.499390,350.835541 C153.461334,365.760071 143.237137,380.470428 128.754593,391.679138 C108.239929,407.556427 85.542152,414.690857 59.662731,409.878540 C57.109100,409.403687 54.659321,408.370392 50.931396,407.215118 C55.067955,400.422455 58.823608,394.255249 62.802666,387.806335 z"/>
  <path fill="#FDEA39" opacity="1.000000" stroke="none" d=" M425.891907,113.164001 C434.427368,114.483696 442.513519,115.797050 451.793823,117.304359 C440.666046,138.545074 426.583069,154.783142 407.919739,166.710953 C383.942932,182.034637 357.642151,187.248276 328.173920,183.459198 C332.535217,177.458862 336.321838,172.341110 340.011932,167.154724 C350.381195,152.581024 361.766602,139.077820 376.860016,128.982361 C391.636322,119.098999 407.656555,113.547028 425.891907,113.164001 z"/>
  <path fill="#FDEA39" opacity="1.000000" stroke="none" d=" M350.778778,207.706070 C366.526764,197.832474 380.811859,186.198227 398.259705,179.857040 C425.950287,169.793243 452.881012,168.989456 478.507355,185.833145 C480.659210,187.247513 482.488892,189.152069 484.425873,190.793015 C459.651001,224.228851 380.197479,235.421860 347.383118,209.623047 C348.517273,209.001419 349.507782,208.458511 350.778778,207.706070 z"/>
  <path fill="#FDEA39" opacity="1.000000" stroke="none" d=" M282.326843,470.669952 C271.033630,446.499084 267.040009,421.819794 274.110565,396.093781 C277.844757,382.507080 285.047852,370.913818 296.676483,361.389526 C310.803314,381.561584 318.665070,403.595490 319.602203,427.571259 C320.625153,453.742859 312.553101,477.539307 296.487579,500.264709 C291.432678,489.705719 286.958130,480.359039 282.326843,470.669952 z"/>
  <path fill="#FDEA39" opacity="1.000000" stroke="none" d=" M449.585876,277.663269 C430.945435,283.939087 412.479462,285.321777 393.745514,280.061951 C383.809143,277.272156 375.102997,272.273712 366.678131,264.917480 C383.585175,249.959732 402.380127,239.235855 424.153961,234.309830 C451.985229,228.013412 478.453003,232.376114 505.018372,245.861847 C486.438812,257.701538 470.152435,270.915619 449.585876,277.663269 z"/>
  <path fill="#FDEA39" opacity="1.000000" stroke="none" d=" M212.016418,396.125488 C216.746124,384.564270 222.949829,374.558472 232.794800,367.169983 C262.354706,396.270508 262.129913,480.091095 232.432037,504.518616 C218.972229,477.896912 204.562988,451.592896 207.113983,420.327301 C207.768753,412.302185 210.223450,404.423950 212.016418,396.125488 z"/>
  <path fill="#FDEA39" opacity="1.000000" stroke="none" d=" M176.988098,453.970215 C169.170441,463.780518 160.819229,472.496185 149.353455,479.251434 C148.573776,473.715851 147.570328,468.768768 147.230270,463.776520 C146.125275,447.554382 143.778946,431.393188 146.951797,415.059509 C152.451828,386.745636 165.312637,363.953430 192.403015,351.037476 C196.124588,349.263153 197.482010,350.283234 198.196609,353.973694 C204.259460,385.283386 201.732803,415.257935 184.466370,442.946228 C182.181229,446.610657 179.610001,450.096619 176.988098,453.970215 z"/>
  <path fill="#FDEA39" opacity="1.000000" stroke="none" d=" M149.727875,143.981964 C150.871628,144.680130 151.741196,145.172638 152.801208,145.825775 C156.285904,150.486984 159.667694,154.926544 162.856567,159.500595 C169.971085,169.705627 173.356506,181.244324 174.906174,193.458069 C175.479706,197.978333 173.118912,198.547745 169.596161,197.987152 C128.877670,191.507416 96.908401,172.236267 77.759010,134.616989 C74.387573,127.993721 72.135796,120.795799 69.461411,113.827011 C69.011879,112.655617 69.045914,111.298645 68.726860,109.157181 C76.997276,111.249176 84.587257,113.306000 92.243134,115.078156 C110.263763,119.249504 127.152367,125.942642 142.026123,137.149048 C144.667160,139.138901 146.986038,141.556320 149.727875,143.981964 z"/>
  <path fill="#FDEA39" opacity="1.000000" stroke="none" d=" M487.668182,329.770508 C478.454468,332.209839 469.752014,335.181854 460.805603,336.828369 C431.646606,342.194977 403.370911,341.120392 378.884094,321.679352 C372.381195,316.516449 367.219238,309.664520 360.585419,302.687653 C384.202484,291.904907 407.248901,287.798798 431.289490,291.207397 C457.387329,294.907654 479.580780,306.610931 498.771973,326.243622 C494.538177,327.609192 491.302948,328.652679 487.668182,329.770508 z"/>
  <path fill="#FDEA39" opacity="1.000000" stroke="none" d=" M59.385757,223.673767 C44.718719,216.696350 31.732494,208.136017 20.901505,194.732071 C28.475071,192.878113 35.072964,191.471085 41.549778,189.636612 C57.860970,185.016663 74.451042,182.549530 91.354889,184.175339 C117.442123,186.684402 139.332748,197.034805 154.124374,219.693588 C154.912811,220.901382 155.454788,222.270081 156.405914,224.143921 C123.758377,236.448334 91.750145,238.395325 59.385757,223.673767 z"/>
  <path fill="#FDEA39" opacity="1.000000" stroke="none" d=" M101.932205,240.965775 C118.070747,242.527145 133.021652,246.448318 147.246063,254.354141 C146.431183,255.499161 146.059250,256.503235 145.339706,256.961182 C133.142624,264.723541 121.267899,273.093384 108.581421,279.960968 C91.785690,289.053070 73.580635,293.399628 54.263489,292.111694 C39.214691,291.108337 25.777948,285.896881 13.725899,276.959381 C12.707152,276.203888 11.931533,275.120544 10.527758,273.649719 C36.899220,250.843491 66.415794,238.332947 101.932205,240.965775 z"/>
  <path fill="#A6DC6F" opacity="1.000000" stroke="none" d=" M15.204457,11.952278 C15.370615,11.611883 15.847774,11.253312 16.634228,10.887775 C16.467503,11.231908 15.991480,11.583005 15.204457,11.952278 z"/>
</svg>